<?xml version="1.0" encoding="UTF-8"?>
<svg width="22px" height="22px" viewBox="0 0 22 22" version="1.1" xmlns="http://www.w3.org/2000/svg" xmlns:xlink="http://www.w3.org/1999/xlink">
    <!-- Generator: Sketch 53.2 (72643) - https://sketchapp.com -->
    <title>Icon22x22</title>
    <desc>Created with Sketch.</desc>
    <g id="Page-1" stroke="none" stroke-width="1" fill="none" fill-rule="evenodd">
        <g id="Icon22x22">
            <circle id="Combined-Shape" fill="#F7435D" cx="11" cy="11" r="11"></circle>
            <path d="M9.16063976,10.6443412 C9.3570647,10.8407661 9.35691659,11.159382 9.16063976,11.3556588 L6.16270386,14.3535947 C5.96627891,14.5500197 5.96582708,14.8680356 6.16620776,15.0684163 L6.93158373,15.8337922 C7.12994382,16.0321523 7.45012844,16.033573 7.64640528,15.8372961 L10.6443412,12.8393602 C10.8407661,12.6429353 11.159382,12.6430834 11.3556588,12.8393602 L14.3535947,15.8372961 C14.5500197,16.0337211 14.8680356,16.0341729 15.0684163,15.8337922 L15.8337922,15.0684163 C16.0321523,14.8700562 16.033573,14.5498716 15.8372961,14.3535947 L12.8393602,11.3556588 C12.6429353,11.1592339 12.6430834,10.840618 12.8393602,10.6443412 L15.8372961,7.64640528 C16.0337211,7.44998033 16.0341729,7.13196441 15.8337922,6.93158373 L15.0684163,6.16620776 C14.8700562,5.96784766 14.5498716,5.96642702 14.3535947,6.16270386 L11.3556588,9.16063976 C11.1592339,9.3570647 10.840618,9.35691659 10.6443412,9.16063976 L7.64640528,6.16270386 C7.44998033,5.96627891 7.13196441,5.96582708 6.93158373,6.16620776 L6.16620776,6.93158373 C5.96784766,7.12994382 5.96642702,7.45012844 6.16270386,7.64640528 L9.16063976,10.6443412 Z" id="Combined-Shape" fill="#FFFFFF"></path>
        </g>
    </g>
</svg>