<?xml version="1.0" encoding="UTF-8" standalone="no"?>
<svg width="25px" height="21px" viewBox="0 0 25 21" version="1.1" xmlns="http://www.w3.org/2000/svg" xmlns:xlink="http://www.w3.org/1999/xlink">
    <!-- Generator: sketchtool 42 (36781) - http://www.bohemiancoding.com/sketch -->
    <title>AE25CA40-90EA-4F7A-ADB9-1CD0C6868B58</title>
    <desc>Created with sketchtool.</desc>
    <defs></defs>
    <g id="Desktop" stroke="none" stroke-width="1" fill="none" fill-rule="evenodd">
        <g id="Homepage" transform="translate(-617.000000, -547.000000)">
            <g id="Group-3" transform="translate(206.000000, 544.000000)">
                <g id="Group" transform="translate(410.000000, 0.000000)">
                    <g id="ic-click-and-collect-32px">
                        <rect id="area" opacity="0.100000001" x="0" y="0" width="26" height="26"></rect>
                        <path d="M15.7180777,22.75 L3.79189386,22.75 C3.49261415,22.75 3.25,22.5055574 3.25,22.2151139 L3.25,10.8333333 L1.62590581,10.8333333 C1.32625131,10.8333333 1.08333333,10.6003545 1.08333333,10.3019816 L1.08333333,7.03135173 C1.08333333,6.73789427 1.25806745,6.32526588 1.46891355,6.11441979 L3.94775312,3.63558021 C4.16070319,3.42263014 4.57836278,3.25 4.87109264,3.25 L21.1289074,3.25 C21.4259036,3.25 21.8414008,3.42473412 22.0522469,3.63558021 L24.5310865,6.11441979 C24.7440365,6.32736986 24.9166667,6.73297882 24.9166667,7.03135173 L24.9166667,10.3019816 C24.9166667,10.5954391 24.6807798,10.8333333 24.3740942,10.8333333 L22.75,10.8333333 L22.75,13.7766429 C22.75,13.9714528 22.6340644,14.0191888 22.4987386,13.8905713 L21.8172995,13.2429118 C21.7341073,13.1638435 21.6666667,13.002361 21.6666667,12.8905897 L21.6666667,10.8333333 L4.33333333,10.8333333 L4.33333333,21.6666667 L9.75,21.6666667 L9.75,17.3351376 C9.75,15.5392157 11.2087269,14.0833333 13,14.0833333 C14.7949254,14.0833333 16.25,15.5339385 16.25,17.3351376 L16.25,22.2078612 C16.25,22.5072762 16.0031295,22.75 15.7180777,22.75 Z M2.16666667,7.58333333 L2.16666667,9.75 L23.8333333,9.75 L23.8333333,7.58333333 L2.16666667,7.58333333 Z M2.61539803,6.5 L23.384602,6.5 L21.2862145,4.40161256 C21.2768067,4.39220468 21.1361372,4.33333333 21.1289074,4.33333333 L4.87109264,4.33333333 C4.86489173,4.33333333 4.72300034,4.39239768 4.71378547,4.40161256 L2.61539803,6.5 Z M15.1666667,21.6666667 L15.1666667,17.3351376 C15.1666667,16.134207 14.198578,15.1666667 13,15.1666667 C11.8057204,15.1666667 10.8333333,16.1388389 10.8333333,17.3351376 L10.8333333,21.6666667 L15.1666667,21.6666667 Z M21.9583251,20.2074201 L23.2645632,23.4352852 L22.17566,23.8333333 L20.8819504,20.6364275 L18.4166667,22.9795047 L18.4166667,13 L26,20.2074201 L21.9583251,20.2074201 Z" id="Combined-Shape" fill="#545146"></path>
                    </g>
                </g>
            </g>
        </g>
    </g>
</svg>