<?xml version="1.0" encoding="UTF-8"?>
<svg width="85px" height="32px" viewBox="0 0 85 32" version="1.1" xmlns="http://www.w3.org/2000/svg" xmlns:xlink="http://www.w3.org/1999/xlink">
    <!-- Generator: Sketch 46.2 (44496) - http://www.bohemiancoding.com/sketch -->
    <title>Checkout/Payments/Wallets</title>
    <desc>Created with Sketch.</desc>
    <defs></defs>
    <g id="Symbols" stroke="none" stroke-width="1" fill="none" fill-rule="evenodd">
        <g id="Checkout/Payments/Wallets">
            <path d="M45.7532003,21.159828 L43.8762948,21.159828 L42.0860157,14.880827 C42.0090141,14.6071994 41.9127635,14.2123656 41.797261,13.6963136 C41.6817585,13.1802616 41.6119769,12.8214309 41.5879138,12.6198106 C41.5397878,12.9270415 41.4615842,13.3254757 41.3533007,13.815125 C41.2450171,14.3047743 41.1547822,14.6696056 41.0825931,14.9096297 L39.3356273,21.159828 L37.4587218,21.159828 L36.0943559,15.8889235 L34.7083333,10.6324203 L36.4697369,10.6324203 L37.9784802,16.7674076 C38.2142977,17.7515067 38.3827363,18.6203812 38.4838009,19.3740571 C38.5367395,18.966016 38.6161463,18.5099769 38.7220235,18.0059261 C38.8279008,17.5018753 38.9241514,17.0938404 39.0107782,16.7818089 L40.7288686,10.6324203 L42.4397402,10.6324203 L44.2011438,16.8106117 C44.3695849,17.3818692 44.5476485,18.2363425 44.73534,19.3740571 C44.807529,18.6875879 44.9807801,17.813913 45.2550984,16.7530062 L46.7566228,10.6324203 L48.5035887,10.6324203 L45.7532003,21.159828 Z M54.2740212,21.159828 L53.9347344,20.0509218 L53.8769835,20.0509218 C53.4919753,20.5357707 53.1045666,20.865799 52.7147459,21.0410166 C52.3249251,21.2162343 51.824422,21.3038418 51.2132215,21.3038418 C50.4287673,21.3038418 49.8163729,21.0926237 49.3760197,20.6701811 C48.9356666,20.2477386 48.7154934,19.6500873 48.7154934,18.8772095 C48.7154934,18.0563268 49.021089,17.4370737 49.6322895,17.0194317 C50.24349,16.6017896 51.1747146,16.3737701 52.4259912,16.3353662 L53.8047948,16.2921621 L53.8047948,15.8673214 C53.8047948,15.3584702 53.6856847,14.9780375 53.4474609,14.7260122 C53.2092371,14.4739868 52.8398754,14.347976 52.3393648,14.347976 C51.9302936,14.347976 51.5380724,14.4079811 51.1626894,14.5279932 C50.7873064,14.6480053 50.4263667,14.7896174 50.0798593,14.9528339 L49.5312254,13.7431181 C49.9643596,13.5174954 50.4383938,13.3458807 50.9533422,13.2282688 C51.4682907,13.110657 51.9543562,13.0518519 52.4115534,13.0518519 C53.4270125,13.0518519 54.1934079,13.2726708 54.7107627,13.7143153 C55.2281174,14.1559598 55.4867909,14.8496193 55.4867909,15.7953145 L55.4867909,21.159828 L54.2740212,21.159828 Z M51.7474176,20.0077177 C52.3634307,20.0077177 52.8579182,19.836103 53.2308949,19.4928684 C53.6038715,19.1496339 53.7903571,18.6683926 53.7903571,18.0491302 L53.7903571,17.3578641 L52.7652779,17.4010682 C51.966386,17.4298711 51.385273,17.5630825 51.0219215,17.8007065 C50.65857,18.0383304 50.476897,18.4019616 50.476897,18.8916109 C50.476897,19.2468467 50.5827727,19.5216702 50.7945272,19.7160898 C51.0062817,19.9105094 51.3239086,20.0077177 51.7474176,20.0077177 Z M59.3081292,21.159828 L57.6116954,21.159828 L57.6116954,9.95555556 L59.3081292,9.95555556 L59.3081292,21.159828 Z M63.1872185,21.159828 L61.4907847,21.159828 L61.4907847,9.95555556 L63.1872185,9.95555556 L63.1872185,21.159828 Z M68.8565868,21.3038418 C67.6149355,21.3038418 66.6440075,20.9426108 65.9437739,20.220138 C65.2435403,19.4976653 64.8934287,18.50278 64.8934287,17.2354524 C64.8934287,15.9345213 65.2182745,14.9120337 65.8679758,14.1679588 C66.5176771,13.4238838 67.4104014,13.0518519 68.5461755,13.0518519 C69.6001354,13.0518519 70.4327031,13.3710793 71.0439036,14.0095436 C71.6551041,14.6480079 71.9606998,15.5264832 71.9606998,16.6449958 L71.9606998,17.5594834 L66.6403946,17.5594834 C66.6644576,18.3323612 66.8738027,18.9264121 67.268436,19.341654 C67.6630694,19.7568958 68.2189166,19.9645136 68.9359944,19.9645136 C69.4076294,19.9645136 69.8467728,19.9201098 70.2534377,19.8313008 C70.6601025,19.7424919 71.0968397,19.5948792 71.5636621,19.3884584 L71.5636621,20.7637901 C71.1497783,20.9606099 70.7310882,21.0998218 70.3075792,21.1814301 C69.8840702,21.2630383 69.4004109,21.3038418 68.8565868,21.3038418 Z M68.5461755,14.3335746 C68.0071641,14.3335746 67.5752395,14.5039892 67.2503889,14.8448235 C66.9255382,15.1856579 66.7318339,15.6825005 66.6692701,16.3353662 L70.2931414,16.3353662 C70.2835162,15.6777 70.1247027,15.1796573 69.8166962,14.8412232 C69.5086896,14.5027891 69.085187,14.3335746 68.5461755,14.3335746 Z M76.6194267,19.9357108 C77.0333105,19.9357108 77.4471881,19.8709053 77.8610719,19.7412922 L77.8610719,21.0158142 C77.6733804,21.0974224 77.4315507,21.1658283 77.1355757,21.2210338 C76.8396007,21.2762394 76.5328019,21.3038418 76.2151701,21.3038418 C74.607761,21.3038418 73.8040685,20.4589694 73.8040685,18.7691992 L73.8040685,14.4775884 L72.7140195,14.4775884 L72.7140195,13.7287167 L73.883476,13.1094574 L74.4609854,11.4244962 L75.5077211,11.4244962 L75.5077211,13.1958657 L77.7816643,13.1958657 L77.7816643,14.4775884 L75.5077211,14.4775884 L75.5077211,18.7403964 C75.5077211,19.1484375 75.6099874,19.4496633 75.814523,19.6440829 C76.0190586,19.8385025 76.2873571,19.9357108 76.6194267,19.9357108 Z M84.577176,18.8916109 C84.577176,19.6692892 84.2932367,20.2657403 83.7253496,20.6809822 C83.1574626,21.096224 82.344145,21.3038418 81.2853725,21.3038418 C80.2217874,21.3038418 79.3675633,21.143028 78.7226746,20.8213956 L78.7226746,19.3596557 C79.6611321,19.7916992 80.5346063,20.0077177 81.3431234,20.0077177 C82.3874581,20.0077177 82.9096176,19.6932908 82.9096176,19.0644274 C82.9096176,18.8628071 82.8518673,18.6947927 82.7363648,18.5603792 C82.6208624,18.4259656 82.4307674,18.2867537 82.1660743,18.1427392 C81.9013812,17.9987247 81.5332226,17.8355107 81.0615876,17.6530923 C80.1423806,17.2978566 79.5203611,16.9426261 79.1955104,16.5873903 C78.8706598,16.2321546 78.7082369,15.7713151 78.7082369,15.204858 C78.7082369,14.5231893 78.9837542,13.993944 79.5347972,13.617106 C80.0858401,13.2402681 80.8353917,13.0518519 81.7834743,13.0518519 C82.7219318,13.0518519 83.6098436,13.2414682 84.4472364,13.6207064 L83.8986025,14.8952284 C83.0371467,14.5399926 82.3128609,14.3623774 81.7257234,14.3623774 C80.8305794,14.3623774 80.3830141,14.6167992 80.3830141,15.1256504 C80.3830141,15.3752756 80.4997179,15.5864937 80.7331292,15.7593111 C80.9665404,15.9321285 81.4754654,16.1697488 82.2599196,16.4721793 C82.9192461,16.7266049 83.3980928,16.9594249 83.6964742,17.1706462 C83.9948555,17.3818674 84.2162319,17.6254883 84.36061,17.9015161 C84.504988,18.1775439 84.577176,18.5075722 84.577176,18.8916109 Z" id="Wallets" fill="#31AE81"></path>
            <g id="symbol">
                <path d="M15.8031012,0.356191046 C7.16253414,0.356191046 0.158402573,7.34268529 0.158402573,15.9614943 C0.158402573,24.5799131 7.16253414,31.5667975 15.8031012,31.5667975 C24.4436682,31.5667975 31.4477998,24.5799131 31.4477998,15.9614943 C31.4477998,7.34268529 24.4436682,0.356191046 15.8031012,0.356191046 Z" id="Shape" fill="#31AE81"></path>
                <path d="M23.6223216,18.9358651 L23.6223216,22.4337938 C23.6223216,23.0935079 23.0860995,23.6283797 22.4247199,23.6283797 L17.5646943,23.6283797 L11.7448664,23.6283797 L6.88484074,23.6283797 C6.22385222,23.6283797 5.68723907,23.0935079 5.68723907,22.4337938 L5.68723907,11.7800532 C5.68723907,11.120339 6.2234611,10.5854673 6.88484074,10.5854673 L11.7452575,10.5854673 L17.5650853,10.5854673 L22.4255021,10.5854673 C23.0864907,10.5854673 23.6231038,11.120339 23.6231038,11.7800532 L23.6231038,15.9622745 L23.6223216,18.9358651 Z" id="Path" fill-opacity="0.5" fill="#FFFFFF"></path>
                <path d="M25.9193544,20.1425451 C25.9193544,20.8022593 25.3831324,21.3371311 24.7217528,21.3371311 L24.5574834,21.3371311 L24.5574834,20.3844274 L24.7217528,20.3844274 C24.8555149,20.3844274 24.9638544,20.2759705 24.9638544,20.1429353 L24.9638544,9.48958488 C24.9638544,9.35654967 24.8555149,9.24809281 24.7217528,9.24809281 L19.861336,9.24809281 L14.041117,9.24809281 L9.18148249,9.24809281 C9.04772033,9.24809281 8.93938079,9.35654967 8.93938079,9.48958488 L8.93938079,10.0330396 L7.98388082,10.0330396 L7.98388082,9.48958488 C7.98388082,8.82987068 8.52010286,8.29499891 9.18148249,8.29499891 L14.041117,8.29499891 L19.861336,8.29499891 L24.7213616,8.29499891 C25.3827413,8.29499891 25.9189633,8.82987068 25.9189633,9.48958488 L25.9189633,20.1425451 L25.9193544,20.1425451 Z" id="Path" fill-opacity="0.5" fill="#FFFFFF"></path>
                <polygon id="Shape" fill="#31AE81" points="20.3076011 16.5814149 19.5719091 16.5814149 19.5719091 18.3159443 20.3076011 18.3159443 21.9315207 18.3159443 22.6672127 18.3159443 22.6672127 16.5814149 21.9315207 16.5814149"></polygon>
            </g>
        </g>
    </g>
</svg>