<?xml version="1.0" encoding="UTF-8"?>
<svg width="95px" height="32px" viewBox="0 0 95 32" version="1.1" xmlns="http://www.w3.org/2000/svg" xmlns:xlink="http://www.w3.org/1999/xlink">
    <!-- Generator: Sketch 46.2 (44496) - http://www.bohemiancoding.com/sketch -->
    <title>Checkout/Payments/Netbanking</title>
    <desc>Created with Sketch.</desc>
    <defs></defs>
    <g id="Symbols" stroke="none" stroke-width="1" fill="none" fill-rule="evenodd">
        <g id="Checkout/Payments/Netbanking" fill-rule="nonzero">
            <g id="Netbanking">
                <g id="Page-1">
                    <g>
                        <g id="Netbanking">
                            <circle id="Oval" fill="#135680" cx="16" cy="16" r="16"></circle>
                            <polygon id="Shape" fill="#5A89A6" points="5.50365464 10.5156418 5.50365464 22 26.4226657 22 26.4226657 10.5156418"></polygon>
                            <path d="M19.282,25.909 C19.218884,25.9584765 19.140113,25.983669 19.06,25.98 L18.974,25.98 L18.558,25.989 L18.231,25.989 L17.501,25.989 L16.101,25.989 L13.963,25.989 L13.62,25.989 C13.328,25.989 13.107,25.983 12.994,25.978 C12.9766828,25.9790564 12.9593172,25.9790564 12.942,25.978 L12.888,25.971 C12.497,25.92 12.807,25.623 12.807,25.623 C13.0753292,25.4218091 13.3142963,25.1841882 13.517,24.917 C13.6284878,24.7577907 13.6769476,24.5628824 13.653,24.37 C13.743,23.599 13.823,23.001 13.823,23.001 L18.182,23.001 C18.182,23.001 18.259,23.601 18.351,24.37 C18.325889,24.5626639 18.3736816,24.7577575 18.485,24.917 C18.6849853,25.1814548 18.9205452,25.4170147 19.185,25.617 C19.1978349,25.6295576 19.2098591,25.6429178 19.221,25.657 C19.3004013,25.7146607 19.3262414,25.8214099 19.282,25.909 Z M16.03,22.723 C15.314,22.723 5.963,22.754 5.508,22.723 C5.24154194,22.7120823 5.02433921,22.5055686 5,22.24 L5,10.409 C5.04482425,10.1661795 5.26019269,9.99244049 5.507,10 L26.493,10 C26.7401808,9.99193682 26.9561206,10.1657939 27.001,10.409 L27.001,22.24 C26.9766608,22.5055686 26.7594581,22.7120823 26.493,22.723 C26.048,22.753 17.084,22.723 16.029,22.723 L16.03,22.723 Z M26.146,10.8 L5.879,10.8 L5.879,21.724 L26.146,21.724 L26.146,10.8 L26.146,10.8 Z" id="Shape" fill="#59A9C3"></path>
                            <path d="M13.552,13 L19,13 L19,13.011 C18.8335671,13.2712298 18.6522662,13.5216455 18.457,13.761 L17,13.761 C17.2038718,13.9905752 17.344178,14.269464 17.407,14.57 L18.957,14.57 C18.970221,14.5691839 18.9820816,14.5780793 18.985,14.591 C18.6376667,15.0843333 18.4603333,15.3306667 18.453,15.33 L17.445,15.33 C17.3910052,15.6615103 17.2590513,15.9754578 17.06,16.246 C16.8256153,16.5483587 16.5207298,16.7886963 16.172,16.946 C15.6978557,17.1728617 15.1805328,17.2952868 14.655,17.305 L14.655,17.316 C14.655,17.352 15.747,18.5793333 17.931,20.998 L16.489,20.998 C14.363,18.6546667 13.3,17.4776667 13.3,17.467 L13.3,16.754 L13.311,16.727 C13.5306105,16.753994 13.7517431,16.7666874 13.973,16.765 C15.165,16.765 15.9063333,16.3983333 16.197,15.665 C16.2417743,15.560036 16.2649027,15.4471147 16.265,15.333 L13.026,15.333 C13.0197668,15.334968 13.0129652,15.3337659 13.0077842,15.3297805 C13.0026033,15.3257951 12.9996967,15.3195295 13,15.313 C13.3586667,14.8203333 13.5416667,14.574 13.549,14.574 L16.118,14.574 L16.118,14.562 C15.9256301,14.2433827 15.6209814,14.0082967 15.264,13.903 C15.0006905,13.8166646 14.7260412,13.7698226 14.449,13.764 L13.014,13.764 L13.014,13.737 C13.3613333,13.2456667 13.5406667,13 13.552,13 Z" id="Shape" fill="#FFFFFF"></path>
                            <path d="M46.323,0.888 L44.723,0.888 L44.723,6.5 C44.723,6.89533333 44.7376667,7.446 44.767,8.152 C44.7963333,8.858 44.816,9.267 44.826,9.379 L44.777,9.379 L39.526,0.888 L37.4,0.888 L37.4,11.6 L38.989,11.6 L38.989,6.029 C38.989,5.277 38.9556667,4.447 38.889,3.539 L38.852,3.063 L38.911,3.063 L44.177,11.6 L46.323,11.6 L46.323,0.888 Z M53.977,11.618 C54.4180093,11.5310767 54.8461305,11.3882576 55.251,11.193 L55.251,9.793 C54.824172,9.98708822 54.3789404,10.1378439 53.922,10.243 C53.4824898,10.335981 53.0342262,10.3812432 52.585,10.378 C51.9565991,10.4162587 51.3415254,10.1857878 50.893,9.744 C50.4620807,9.24020675 50.2348985,8.59361138 50.256,7.931 L55.656,7.931 L55.656,7 C55.7120945,6.01860178 55.3777817,5.05484624 54.726,4.319 C54.0574612,3.65000678 53.1365088,3.29601795 52.192,3.345 C51.1613658,3.2933978 50.1626664,3.71059465 49.475,4.48 C48.7732228,5.36317881 48.4211654,6.47381507 48.486,7.6 C48.4224297,8.71363784 48.8061753,9.80655684 49.552,10.636 C50.3394792,11.4003269 51.4114156,11.7993557 52.507,11.736 C52.9996221,11.7430309 53.4918073,11.7035222 53.977,11.618 L53.977,11.618 Z M53.477,5.169 C53.8187799,5.59938357 53.9906539,6.14027069 53.96,6.689 L50.285,6.689 C50.305466,6.13167143 50.5133396,5.59754186 50.875,5.173 C51.219173,4.8201485 51.6975838,4.63096704 52.19,4.653 C52.6745767,4.6274653 53.1458985,4.81614026 53.479,5.169 L53.477,5.169 Z M59.809,10.054 C59.583048,9.80375237 59.4711396,9.47092447 59.5,9.135 L59.5,4.8 L61.807,4.8 L61.807,3.5 L59.5,3.5 L59.5,1.7 L58.437,1.7 L57.851,3.407 L56.664,4.037 L56.664,4.8 L57.77,4.8 L57.77,9.164 C57.77,10.8826667 58.5853333,11.742 60.216,11.742 C60.5292563,11.7428346 60.8419194,11.714715 61.15,11.658 C61.4022854,11.6156677 61.6491179,11.5455754 61.886,11.449 L61.886,10.149 C61.478693,10.2796838 61.0537543,10.3471344 60.626,10.349 C60.3256646,10.3626206 60.0321944,10.2565253 59.81,10.054 L59.809,10.054 Z M37.4,27.6 L41.267,27.6 C42.2667126,27.6595092 43.2561635,27.3708015 44.067,26.783 C44.741869,26.2318324 45.1154748,25.3933527 45.074,24.523 C45.1082545,23.9107838 44.9196226,23.3068775 44.543,22.823 C44.1035124,22.3601007 43.5173104,22.0636429 42.884,21.984 L42.884,21.912 C43.4311117,21.8380724 43.9291816,21.5575503 44.276,21.128 C44.6094324,20.6779125 44.7797699,20.127754 44.759,19.568 C44.8189357,18.7619155 44.4432262,17.985322 43.774,17.532 C42.7868546,17.0270734 41.6796683,16.8039061 40.574,16.887 L37.4,16.887 L37.4,27.6 Z M39.15,18.357 L40.666,18.357 C41.2629068,18.3153377 41.8602619,18.4315667 42.398,18.694 C42.7676035,18.9288475 42.977564,19.348384 42.944,19.785 C42.9898362,20.239867 42.7991944,20.6864597 42.439,20.968 C41.950489,21.236145 41.3947538,21.3570175 40.839,21.316 L39.152,21.316 L39.152,18.353 L39.15,18.357 Z M40.923,22.737 C41.5286849,22.6932399 42.1335349,22.8326063 42.659,23.137 C43.0492958,23.4242342 43.2648857,23.8916603 43.23,24.375 C43.2726395,24.88304 43.0633701,25.3796812 42.67,25.704 C42.176199,26.018015 41.5947805,26.1655601 41.011,26.125 L39.151,26.125 L39.151,22.732 L40.924,22.732 L40.923,22.737 Z M53.42,27.6 L53.42,22.139 C53.4881432,21.3510557 53.1993033,20.5740872 52.633,20.022 C51.9606932,19.5261029 51.1331829,19.2870365 50.3,19.348 C49.8018467,19.3520048 49.3057258,19.4120492 48.821,19.527 C48.3195279,19.6390926 47.8345512,19.8152034 47.378,20.051 L47.935,21.281 C48.2918426,21.1131405 48.6592956,20.9688317 49.035,20.849 C49.4210433,20.7262007 49.8238992,20.6644564 50.229,20.666 C50.6408639,20.6313204 51.0484488,20.7705665 51.353,21.05 C51.61854,21.3760587 51.7485113,21.7917521 51.716,22.211 L51.716,22.643 L50.316,22.687 C49.3244438,22.6536139 48.343061,22.8959306 47.481,23.387 C46.8610939,23.8103909 46.5082185,24.5275248 46.551,25.277 C46.5087128,25.9520472 46.7518031,26.6138334 47.221,27.101 C47.7322672,27.5545898 48.4027316,27.7865906 49.085,27.746 C49.6057413,27.7643259 50.1245474,27.6733731 50.608,27.479 C51.0749932,27.2411261 51.4790171,26.8960438 51.787,26.472 L51.846,26.472 L52.19,27.6 L53.42,27.6 L53.42,27.6 Z M48.659,26.131 C48.4351099,25.9112397 48.3176253,25.6051229 48.337,25.292 C48.3087381,24.8495625 48.519795,24.425922 48.89,24.182 C49.434653,23.8960142 50.0441504,23.7561295 50.659,23.776 L51.699,23.732 L51.699,24.432 C51.7307957,24.9804371 51.5236557,25.515792 51.131,25.9 C50.7159268,26.26264 50.1765401,26.4504397 49.626,26.424 C49.2777379,26.4505654 48.9323096,26.3444721 48.659,26.127 L48.659,26.131 Z M62.949,22.319 C62.949,20.3416667 61.9773333,19.353 60.034,19.353 C59.5188414,19.3463095 59.0086042,19.4538896 58.54,19.668 C58.11389,19.8582303 57.7524793,20.168557 57.5,20.561 L57.412,20.561 L57.17,19.5 L55.822,19.5 L55.822,27.6 L57.543,27.6 L57.543,23.56 C57.476708,22.8042541 57.6536463,22.0470985 58.048,21.399 C58.4473644,20.9403153 59.0421743,20.7005326 59.648,20.754 C60.0978106,20.7135176 60.5409883,20.8837717 60.848,21.215 C61.1297163,21.6249855 61.2627442,22.1189883 61.225,22.615 L61.225,27.6 L62.954,27.6 L62.954,22.315 L62.949,22.319 Z M66.963,23.319 L67.051,21.759 L67.051,16.2 L65.344,16.2 L65.344,27.6 L67.05,27.6 L67.05,24.82 L68,24.044 L70.6,27.6 L72.621,27.6 L69.157,22.978 L72.412,19.5 L70.427,19.5 L67.981,22.1 L67.007,23.316 L66.962,23.316 L66.963,23.319 Z M75.642,19.5 L73.92,19.5 L73.92,27.6 L75.641,27.6 L75.641,19.5 L75.642,19.5 Z M74.071,18.046 C74.266962,18.2248156 74.5272705,18.3161582 74.792,18.299 C75.0523095,18.3146243 75.3077039,18.2232314 75.499,18.046 C75.6743927,17.8596224 75.7658191,17.6095548 75.752,17.354 C75.7688164,17.0926222 75.6773168,16.8358444 75.499,16.644 C75.3065727,16.4690246 75.0516072,16.3792277 74.792,16.395 C74.5279787,16.3777974 74.2681374,16.4675346 74.071,16.644 C73.8926832,16.8358444 73.8011836,17.0926222 73.818,17.354 C73.8054472,17.6078695 73.896792,17.8559086 74.071,18.041 L74.071,18.046 Z M85.229,22.32 C85.229,20.3426667 84.2573333,19.354 82.314,19.354 C81.7988414,19.3473095 81.2886042,19.4548896 80.82,19.669 C80.39389,19.8592303 80.0324793,20.169557 79.78,20.562 L79.692,20.562 L79.45,19.5 L78.1,19.5 L78.1,27.6 L79.821,27.6 L79.821,23.56 C79.754708,22.8042541 79.9316463,22.0470985 80.326,21.399 C80.7253644,20.9403153 81.3201743,20.7005326 81.926,20.754 C82.3758106,20.7135176 82.8189883,20.8837717 83.126,21.215 C83.4077163,21.6249855 83.5407442,22.1189883 83.503,22.615 L83.503,27.6 L85.231,27.6 L85.231,22.315 L85.229,22.32 Z M91.66,19.5 C91.472949,19.4547981 91.2832416,19.4213989 91.092,19.4 C90.8529043,19.3689651 90.6120997,19.3529337 90.371,19.352 C89.5190576,19.2954094 88.6758116,19.5521886 88,20.074 C87.4293727,20.59546 87.1241145,21.3462997 87.169,22.118 C87.157706,22.6232878 87.2939275,23.120913 87.561,23.55 C87.8034014,23.9418789 88.160085,24.2500508 88.583,24.433 C88.2959899,24.5966541 88.038425,24.8072353 87.821,25.056 C87.6473953,25.2739848 87.5566897,25.5464558 87.565,25.825 C87.5669064,26.0708678 87.6447978,26.3101306 87.788,26.51 C87.9274198,26.7192077 88.1248058,26.8832327 88.356,26.982 C87.8540476,27.0787552 87.3931578,27.3252371 87.034,27.689 C86.7185773,28.0298985 86.5491532,28.480739 86.562,28.945 C86.5355602,29.6170023 86.8674557,30.2526278 87.434,30.615 C88.2011574,31.0525997 89.0795429,31.2562934 89.961,31.201 C91.1036363,31.2713501 92.2424397,31.0120736 93.242,30.454 C93.9738751,30.0007884 94.4069664,29.1903162 94.377,28.33 C94.4147366,27.7013374 94.155632,27.0913313 93.677,26.682 C93.0846504,26.2622299 92.3652457,26.0604715 91.641,26.111 L90.231,26.111 C89.9060256,26.1344949 89.5798279,26.0870666 89.275,25.972 C89.1126896,25.8970296 89.0104946,25.7327314 89.015,25.554 C89.0413738,25.204419 89.2543242,24.8962718 89.572,24.748 C89.8030514,24.7889297 90.0373573,24.8086784 90.272,24.807 C91.1252568,24.85646 91.9684519,24.6020843 92.652,24.089 C93.2315587,23.6030801 93.5511001,22.8744961 93.516,22.119 C93.517694,21.8503641 93.4758172,21.5832309 93.392,21.328 C93.3208962,21.102696 93.2145809,20.8900655 93.077,20.698 L94.461,20.442 L94.461,19.5 L91.66,19.5 Z M88.536,27.919 C88.8760706,27.6714856 89.2909886,27.5485992 89.711,27.571 L91.011,27.571 C91.488738,27.5335051 91.9685537,27.6099329 92.411,27.794 C92.6686086,27.9528661 92.8145097,28.2435073 92.788,28.545 C92.7796842,29.0031744 92.5128365,29.4171949 92.099,29.614 C91.4458683,29.9227789 90.7249509,30.0604242 90.004,30.014 C89.5157115,30.0408195 89.0290759,29.9372801 88.594,29.714 C88.2790453,29.5454923 88.0857026,29.2141028 88.094,28.857 C88.0809208,28.489838 88.2454391,28.1388408 88.536,27.914 L88.536,27.919 Z M89.225,20.884 C89.5223716,20.5841425 89.9357629,20.4289382 90.357,20.459 C90.7768789,20.4259854 91.1894221,20.5830748 91.481,20.887 C91.7478935,21.2351141 91.879367,21.6682662 91.851,22.106 C91.9265379,22.5299914 91.7980054,22.9648009 91.5040828,23.2795774 C91.2101603,23.5943539 90.7851671,23.7523431 90.357,23.706 C89.9413459,23.7334894 89.533333,23.584659 89.233,23.296 C88.9535616,22.9719319 88.8127641,22.5509762 88.841,22.124 C88.8073824,21.6755826 88.9441538,21.2309864 89.224,20.879 L89.225,20.884 Z" id="Net_Banking" fill="#3D85B2"></path>
                        </g>
                    </g>
                </g>
            </g>
        </g>
    </g>
</svg>