<?xml version="1.0" encoding="UTF-8"?>
<svg width="121px" height="32px" viewBox="0 0 121 32" version="1.1" xmlns="http://www.w3.org/2000/svg" xmlns:xlink="http://www.w3.org/1999/xlink">
    <!-- Generator: Sketch 46.2 (44496) - http://www.bohemiancoding.com/sketch -->
    <title>Checkout/Payments/LMR</title>
    <desc>Created with Sketch.</desc>
    <defs></defs>
    <g id="Symbols" stroke="none" stroke-width="1" fill="none" fill-rule="evenodd">
        <g id="Checkout/Payments/LMR" fill="#FCB040">
            <g id="LMR" transform="translate(0.000000, 3.000000)">
                <path d="M32.313,3.96 L32.313,14.05 L38.185,14.05 L38.185,15.87 L30.223,15.87 L30.223,3.96 L32.313,3.96 L32.313,3.96 Z M46.83,13.01 L42.561,13.01 L41.625,15.87 L39.409,15.87 L43.48,3.88 L46.055,3.88 L50.072,15.87 L47.748,15.87 L46.83,13.01 Z M44.704,6.41 L42.994,11.3 L46.394,11.3 L44.737,6.41 L44.7,6.41 L44.704,6.41 Z M51.386,15.87 L51.386,3.96 L53.476,3.96 L58.897,12.12 L58.933,12.12 L58.933,3.96 L60.968,3.96 L60.968,15.87 L58.879,15.87 L53.457,7.94 L53.422,7.94 L53.422,15.87 L51.386,15.87 Z M63.094,15.87 L63.094,3.96 L67.561,3.96 C71.667,3.96 72.856,6.48 72.856,9.83 C72.856,13.2 71.667,15.87 67.561,15.87 L63.094,15.87 L63.094,15.87 Z M67.561,14.05 C70.082,14.05 70.661,12.28 70.661,9.83 C70.661,7.38 70.084,5.78 67.561,5.78 L65.183,5.78 L65.183,14.05 L67.561,14.05 Z M80.781,12.49 L80.817,12.49 L84.095,3.96 L86.869,3.96 L86.869,15.87 L84.78,15.87 L84.78,7.66 L84.744,7.66 L81.43,15.87 L79.9,15.87 L76.658,7.66 L76.623,7.66 L76.623,15.87 L74.587,15.87 L74.587,3.96 L77.343,3.96 L80.781,12.49 Z M95.604,13.01 L91.335,13.01 L90.399,15.87 L88.183,15.87 L92.254,3.88 L94.83,3.88 L98.846,15.87 L96.523,15.87 L95.604,13.01 Z M93.479,6.41 L91.768,11.3 L95.168,11.3 L93.511,6.41 L93.475,6.41 L93.479,6.41 Z M107.185,15.87 L104.448,11.42 L102.248,11.42 L102.248,15.87 L100.158,15.87 L100.158,3.96 L105.291,3.96 C106.324427,3.85639938 107.351549,4.2093932 108.102957,4.92639374 C108.854366,5.64339428 109.255082,6.65285439 109.2,7.69 C109.312765,9.30994864 108.213954,10.7650734 106.625,11.1 L109.614,15.87 L107.182,15.87 L107.185,15.87 Z M102.251,9.62 L104.988,9.62 C105.532703,9.69906554 106.083872,9.52682087 106.486629,9.15166667 C106.889385,8.77651246 107.100261,8.23893745 107.06,7.69 C107.101265,7.15564923 106.900387,6.63101212 106.512799,6.26086515 C106.12521,5.89071818 105.591886,5.71419201 105.06,5.78 L102.251,5.78 L102.251,9.62 L102.251,9.62 Z M113.327,9.76 L118.442,3.96 L120.928,3.96 L116.606,8.93 L121,15.87 L118.388,15.87 L115.074,10.56 L113.327,12.54 L113.327,15.87 L111.238,15.87 L111.238,3.96 L113.327,3.96 L113.327,9.76 L113.327,9.76 Z M36.014,26.87 L33.645,23.22 L31.145,23.22 L31.145,26.87 L30.451,26.87 L30.451,18.22 L33.984,18.22 C34.6657738,18.1703185 35.3360536,18.4158132 35.8244618,18.8940822 C36.3128701,19.3723511 36.5723701,20.0373341 36.537,20.72 C36.5693529,21.3269844 36.3580997,21.9217764 35.9501255,22.3723692 C35.5421513,22.822962 34.9712046,23.0920815 34.364,23.12 L36.825,26.87 L36.013,26.87 L36.014,26.87 Z M31.146,22.61 L33.828,22.61 C34.355999,22.6673816 34.882737,22.4913932 35.2702,22.1281466 C35.6576629,21.7649001 35.8672332,21.2505995 35.844,20.72 C35.8754097,20.2037119 35.6815751,19.6991414 35.3125835,19.3366705 C34.943592,18.9741996 34.4356461,18.7893911 33.92,18.83 L31.146,18.83 L31.146,22.61 L31.146,22.61 Z M43.866,18.83 L39.2,18.83 L39.2,22.08 L43.283,22.08 L43.283,22.68 L39.2,22.68 L39.2,26.27 L43.937,26.27 L43.937,26.87 L38.5,26.87 L38.5,18.22 L43.865,18.22 L43.865,18.83 L43.866,18.83 Z M50.966,19.29 L48.819,26.94 L47.919,26.94 L45.445,18.22 L46.217,18.22 L48.389,26.03 L48.4,26.03 L50.586,18.22 L51.409,18.22 L53.596,26.03 L53.609,26.03 L55.781,18.22 L56.501,18.22 L54.041,26.94 L53.141,26.94 L50.994,19.29 L50.968,19.29 L50.966,19.29 Z M62.156,24.44 L58.177,24.44 L57.261,26.87 L56.528,26.87 L59.787,18.16 L60.638,18.16 L63.792,26.87 L63.033,26.87 L62.156,24.44 Z M60.18,18.99 L58.335,23.87 L62.013,23.87 L60.206,18.99 L60.18,18.99 Z M70.755,26.87 L68.386,23.22 L65.886,23.22 L65.886,26.87 L65.192,26.87 L65.192,18.22 L68.727,18.22 C69.408607,18.1706201 70.0786113,18.4162488 70.5667915,18.8944817 C71.0549716,19.3727145 71.3143395,20.037521 71.279,20.72 C71.3113529,21.3269844 71.1000997,21.9217764 70.6921255,22.3723692 C70.2841513,22.822962 69.7132046,23.0920815 69.106,23.12 L71.567,26.87 L70.75,26.87 L70.755,26.87 Z M65.886,22.61 L68.569,22.61 C69.096999,22.6673816 69.623737,22.4913932 70.0112,22.1281466 C70.3986629,21.7649001 70.6082332,21.2505995 70.585,20.72 C70.6164097,20.2037119 70.4225751,19.6991414 70.0535835,19.3366705 C69.684592,18.9741996 69.1766461,18.7893911 68.661,18.83 L65.886,18.83 L65.886,22.61 L65.886,22.61 Z M73.242,26.87 L73.242,18.22 L76.279,18.22 C79.04,18.22 79.852,20.11 79.852,22.48 C79.852,24.91 79.04,26.87 76.279,26.87 L73.242,26.87 Z M76.279,26.27 C78.579,26.27 79.132,24.46 79.132,22.48 C79.132,20.5 78.582,18.83 76.279,18.83 L73.936,18.83 L73.936,26.27 L76.279,26.27 Z M81.2,26.59 L81.331,26.02 C82.2837193,26.2711102 83.2647442,26.3988215 84.25,26.4 C85.95,26.4 86.566,25.46 86.566,24.63 C86.566,23.35 85.066,22.99 84.184,22.78 C82.835,22.46 81.331,21.72 81.331,20.26 C81.331,18.71 82.613,18.1 84.25,18.1 C85.2247601,18.0978113 86.1945184,18.2393326 87.128,18.52 L86.972,19.09 C86.0855452,18.843125 85.1701744,18.7153363 84.25,18.71 C82.55,18.71 82.05,19.47 82.05,20.27 C82.05,21.53 83.713,21.99 84.602,22.21 C85.965,22.5 87.285,23.11 87.285,24.58 C87.285,26.17 86.016,27 84.25,27 C83.2197836,26.9972217 82.194378,26.8593803 81.2,26.59 L81.2,26.59 Z M24.134,8.05 L24.134,4.85 C24.1297849,4.50061581 23.9867984,4.16725027 23.7365601,3.92338988 C23.4863218,3.6795295 23.1493766,3.54519542 22.8,3.55 L19.186,3.55 L19.186,8.05 L24.134,8.05 L24.134,8.05 Z M10.74,16.23 L10.41,16.23 L10.41,3.55 L1.334,3.55 C0.984623415,3.54519542 0.647678191,3.6795295 0.397439917,3.92338988 C0.147201642,4.16725027 0.0042151068,4.50061581 0,4.85 L0,25.7 C0.0042151068,26.0493842 0.147201642,26.3827497 0.397439917,26.6266101 C0.647678191,26.8704705 0.984623415,27.0048046 1.334,27 L22.795,27 C23.1443766,27.0048046 23.4813218,26.8704705 23.7315601,26.6266101 C23.9817984,26.3827497 24.1247849,26.0493842 24.129,25.7 L24.129,16.25 L10.735,16.25 L10.735,16.23 L10.74,16.23 Z M24.134,13 L24.134,8.5 L19.186,8.5 L19.186,12.87 L18.714,12.87 L18.714,8.5 L13.768,8.5 L13.768,8.05 L18.714,8.05 L18.714,3.55 L13.766,3.55 L13.766,13 L24.134,13 L24.134,13 Z M19.014,2.97 C19.2027125,1.85478959 19.7189434,0.820935238 20.497,6.82121026e-13 C21.3231167,0.234701589 21.9958331,0.835538704 22.322,1.63 C21.4251975,2.47697043 20.2424501,2.95535303 19.009,2.97 L19.014,2.97 Z M18.887,2.97 C18.6971621,1.85433433 18.179514,0.820430558 17.4,0 C16.5738726,0.235102728 15.9009991,0.83575104 15.574,1.63 C16.4695383,2.475808 17.6502828,2.95410235 18.882,2.97 L18.887,2.97 Z" id="Shape"></path>
            </g>
        </g>
    </g>
</svg>