<?xml version="1.0" encoding="UTF-8"?>
<svg width="136px" height="46px" viewBox="0 0 136 46" version="1.1" xmlns="http://www.w3.org/2000/svg" xmlns:xlink="http://www.w3.org/1999/xlink">
    <!-- Generator: Sketch 41.2 (35397) - http://www.bohemiancoding.com/sketch -->
    <title>Lifestyle_India Copy 2</title>
    <desc>Created with Sketch.</desc>
    <defs>
        <polygon id="path-1" points="8.78072458 0.00605903648 0.0786959688 0.00605903648 0.0786959688 8.71618103 8.78072458 8.71618103 8.78072458 0.00605903648"></polygon>
    </defs>
    <g id="Page-1" stroke="none" stroke-width="1" fill="none" fill-rule="evenodd">
        <g id="Lifestyle_India-Copy-2">
            <g id="Group-3" transform="translate(0.000000, 4.767727)" fill="#1A1918">
                <path d="M7.44987893,32.3425675 C2.43988674,32.2862001 -1.83355007e-05,30.0970519 -1.83355007e-05,25.6627552 L-1.83355007e-05,0.0761786132 L3.6397619,0.0761786132 L3.6397619,24.9791858 C3.6397619,26.2567244 4.02004018,27.2858426 4.75914421,28.0311041 C5.45185943,28.7242211 6.35799987,29.1068585 7.44987893,29.1430291 L7.44987893,32.3425675" id="Fill-1"></path>
            </g>
            <polygon id="Fill-4" fill="#1A1918" points="11.9186072 37.1777154 11.9186072 16.7877724 8.81000637 16.7877724 8.81000637 13.7828575 15.5611377 13.7828575 15.5611377 37.1777154"></polygon>
            <path d="M22.1826371,37.1264339 L22.1826371,17.2327811 L18.882797,17.2327811 L18.882797,13.8070386 L22.2108737,13.8070386 L22.2108737,13.5975428 C22.2108737,10.8695075 22.8379479,8.98312749 24.3154225,7.28182348 C25.709654,5.67672964 27.5696072,4.86334989 29.8626449,4.86334989 C30.9503068,4.86334989 32.1065434,5.04677345 33.3828776,5.43087964 L32.3997281,7.99293404 C31.6015837,7.73973976 30.8826488,7.6203951 30.2066189,7.6203951 C28.8967307,7.6203951 27.8096189,8.12127545 26.9680194,9.10724593 C26.1229362,10.0777934 25.6977359,11.3186106 25.6977359,12.8078484 C25.6977359,13.0325835 25.6977359,13.1355872 25.6929687,13.2334498 C25.6929687,13.3248861 25.6854511,13.418893 25.6854511,13.5975428 L25.6854511,13.8070386 L30.4634992,13.8070386 L30.4634992,17.2327811 L25.831035,17.2327811 L25.831035,37.1264339 L22.1826371,37.1264339" id="Fill-6" fill="#1A1918"></path>
            <path d="M41.293546,37.1156745 C38.5015993,37.1156745 36.090481,36.1482484 34.1381169,34.2468125 C31.961693,32.146163 30.8511117,29.271242 30.8511117,25.7052236 C30.8511117,22.000031 31.9825954,18.9798767 34.2180597,16.748866 C36.2204797,14.7620529 38.6128958,13.7568036 41.3379179,13.7568036 C44.5202274,13.7568036 47.0494264,14.6621706 48.8420883,16.4519732 C50.5771767,18.1639264 51.4591143,20.4803145 51.4591143,23.337242 C51.4591143,24.1700841 51.36652,24.917916 51.191416,25.6024036 L34.6881819,25.6024036 L34.6881819,25.8229158 C34.6881819,28.554256 35.4452547,30.685568 36.942165,32.1621368 C38.2709388,33.454364 39.9997931,34.1098416 42.0808724,34.1098416 C44.3377892,34.1098416 46.2694342,33.4622591 47.821351,32.1860057 L49.3061598,34.7464076 C48.7098893,35.3133866 47.8059492,35.8047194 46.6308269,36.2292191 C45.0393055,36.8202506 43.2459101,37.1156745 41.293546,37.1156745 M41.4264784,16.8836337 C39.5665252,16.8836337 37.9918724,17.500921 36.7357073,18.7024463 C35.5398659,19.8564173 34.8451338,21.2975499 34.6874485,23.00069 L34.666546,23.2298318 L47.7562599,23.2298318 L47.7562599,23.0181327 C47.7562599,21.3326189 47.2204966,19.8933223 46.1594212,18.7529382 C45.0011676,17.5117538 43.4101962,16.8836337 41.4264784,16.8836337" id="Fill-8" fill="#1A1918"></path>
            <path d="M60.3978359,37.1156745 C58.1115823,37.1156745 55.9278242,36.5475939 53.9017514,35.4312624 L55.1672676,31.993769 C57.3523092,33.3965278 59.1409373,34.1098416 60.5065654,34.1098416 C63.1329425,34.1098416 64.4668502,32.9705591 64.4668502,30.7274304 C64.4668502,29.1320677 63.2039009,27.7599714 60.7137566,26.6447414 C58.8385849,25.7771976 57.6192741,25.1444873 56.9861493,24.7086039 C56.3361558,24.265927 55.8036928,23.7885484 55.3476889,23.2366252 C54.8869178,22.6977382 54.5515615,22.1309429 54.318884,21.5070457 C54.0854731,20.8925125 53.9782104,20.2445629 53.9782104,19.52519 C53.9782104,17.7192299 54.6434224,16.2953563 55.9379087,15.2875366 C57.257698,14.2652119 59.0129555,13.7459708 61.1490414,13.7459708 C62.7189269,13.7459708 64.7472,14.2518086 67.1684029,15.2397987 L66.1636174,18.5171866 C64.6096837,17.348527 63.0207293,16.7576792 61.442226,16.7576792 C60.4434913,16.7576792 59.589057,16.9972865 58.8941415,17.4776029 C58.1752065,17.9784832 57.8064796,18.624046 57.8064796,19.3896879 C57.8064796,20.9402504 58.6909841,22.1263527 60.4238723,22.9180668 L63.320698,24.2484843 C65.0623873,25.0482771 66.3407384,25.9604375 67.1300817,26.9658704 C67.9014562,27.9711196 68.2929191,29.2378255 68.2929191,30.7555223 C68.2929191,32.7395813 67.5961701,34.3085046 66.2133066,35.4180427 C64.835027,36.5475939 62.880646,37.1156745 60.3978359,37.1156745" id="Fill-10" fill="#1A1918"></path>
            <path d="M78.1794211,37.1156745 C76.4263638,37.1156745 74.9334874,36.4561576 73.7409464,35.1576877 C72.5430882,33.8610539 71.9314159,32.1860057 71.9314159,30.1878089 L71.9314159,16.9497323 L69.2582832,16.9497323 L69.2582832,13.8219842 L71.9314159,13.8219842 L71.9314159,8.95896478 L75.5691792,7.55932736 L75.5691792,13.8219842 L81.8630231,13.8219842 L81.8630231,16.9497323 L75.5691792,16.9497323 L75.5691792,28.559397 C75.5691792,30.5234428 75.9017852,31.9524574 76.5818489,32.8080668 C77.2809815,33.6690008 78.3889958,34.1098416 79.8897566,34.1098416 C80.8756564,34.1098416 81.9006109,33.8896966 82.9574692,33.4356361 L83.480581,36.5301513 C81.8736577,36.9206837 80.0921805,37.1156745 78.1794211,37.1156745" id="Fill-12" fill="#1A1918"></path>
            <path d="M86.2864443,42.5101999 C87.9234378,42.4832097 89.3504899,42.0693591 90.5400971,41.2904975 C91.8050633,40.4642653 92.4502896,39.431475 92.4502896,38.2119562 C92.4502896,36.9331323 92.2207291,35.6651412 91.7716927,34.434606 C91.2979034,33.1346672 90.7252857,31.6112786 90.0613572,29.9079549 L83.8373715,13.8724394 L87.5140061,13.8724394 L94.5359528,32.3794909 L100.926241,13.778249 L104.599026,13.778249 L94.8218033,40.7651974 C94.3029086,42.1741988 93.2212974,43.3590159 91.6037395,44.2913731 C90.0184521,45.1989433 88.2399086,45.6774236 86.2864443,45.7121253 L86.2864443,42.5101999" id="Fill-14" fill="#1A1918"></path>
            <path d="M114.232681,37.1102948 C109.223789,37.0539274 106.785351,34.8647792 106.785351,30.4304825 L106.785351,4.84390589 L110.430998,4.84390589 L110.430998,29.746913 C110.430998,31.0244517 110.799725,32.0467764 111.539013,32.7988314 C112.236495,33.4919484 113.140435,33.8745857 114.232681,33.9107564 L114.232681,37.1102948" id="Fill-16" fill="#1A1918"></path>
            <path d="M125.03594,37.1156745 C122.224374,37.1156745 119.819306,36.1482484 117.867492,34.2357961 C115.694552,32.1379006 114.591855,29.2690387 114.591855,25.7052236 C114.591855,21.9932375 115.724256,18.9798767 117.96137,16.7466627 C119.951689,14.7602168 122.351439,13.7459708 125.076094,13.7459708 C128.257854,13.7459708 130.781919,14.6573968 132.574214,16.4457306 C134.310036,18.1639264 135.191057,20.4803145 135.191057,23.3343042 C135.191057,24.1478676 135.10653,24.9048799 134.924275,25.593774 L118.428375,25.593774 L118.428375,25.8098797 C118.428375,28.544892 119.179397,30.6818958 120.673741,32.1568122 C122.004531,33.4488558 123.734486,34.1098416 125.817765,34.1098416 C128.078166,34.1098416 130.000093,33.4622591 131.552193,32.1860057 L133.040853,34.7464076 C132.446782,35.3093472 131.541375,35.7995784 130.358185,36.2238945 C128.780782,36.8162112 126.993071,37.1156745 125.03594,37.1156745 M125.29062,16.7576792 C123.43415,16.7576792 121.851247,17.36395 120.590681,18.5741049 C119.393923,19.7278923 118.707258,21.1671889 118.540772,22.8589453 L118.523537,23.0946969 L131.620585,23.0946969 L131.620585,22.8791421 C131.620585,21.197484 131.085188,19.7670006 130.030897,18.624046 C128.862742,17.3856157 127.271587,16.7576792 125.29062,16.7576792" id="Fill-18" fill="#1A1918"></path>
            <path d="M16.5778779,6.94196662 C16.5778779,9.59619181 14.4350079,11.7374186 11.7858948,11.7374186 C9.14338244,11.7374186 6.99592861,9.59619181 6.99592861,6.94196662 C6.99592861,4.29251521 9.14338244,2.14412776 11.7858948,2.14412776 C14.4350079,2.14412776 16.5778779,4.29251521 16.5778779,6.94196662" id="Fill-22" fill="#DD488C"></path>
            <g id="Group-26" transform="translate(12.101430, 0.177548)">
                <mask id="mask-2" fill="white">
                    <use xlink:href="#path-1"></use>
                </mask>
                <g id="Clip-25"></g>
                <path d="M8.78072458,4.36542562 C8.78072458,6.77123032 6.82982731,8.71618103 4.42549311,8.71618103 C2.02427594,8.71618103 0.0786959688,6.77123032 0.0786959688,4.36542562 C0.0786959688,1.95374549 2.02427594,0.00604067576 4.42549311,0.00604067576 C6.82982731,0.00604067576 8.78072458,1.95374549 8.78072458,4.36542562" id="Fill-24" fill="#EE9F2D" mask="url(#mask-2)"></path>
            </g>
            <path d="M12.8180185,2.25980028 C12.4089534,2.92519265 12.1715087,3.69891325 12.1715087,4.54295539 C12.1715087,6.82390721 13.9252993,8.70184131 16.1620471,8.88893701 C16.4310289,8.29184651 16.5778962,7.63306399 16.5778962,6.94196662 C16.5778962,4.6457754 14.971523,2.73497562 12.8180185,2.25980028" id="Fill-27" fill="#C6242A"></path>
        </g>
    </g>
</svg>