<?xml version="1.0" encoding="utf-8"?>
<!-- Generator: Adobe Illustrator 16.0.0, SVG Export Plug-In . SVG Version: 6.00 Build 0)  -->
<!DOCTYPE svg PUBLIC "-//W3C//DTD SVG 1.1//EN" "http://www.w3.org/Graphics/SVG/1.1/DTD/svg11.dtd">
<svg version="1.1" id="Layer_1" xmlns="http://www.w3.org/2000/svg" xmlns:xlink="http://www.w3.org/1999/xlink" x="0px" y="0px"
	 width="113.535px" height="89.327px" viewBox="0 0 113.535 89.327" enable-background="new 0 0 113.535 89.327"
	 xml:space="preserve">
<g>
	<defs>
		<rect id="SVGID_1_" y="0" width="113.535" height="89.327"/>
	</defs>
	<clipPath id="SVGID_2_">
		<use xlink:href="#SVGID_1_"  overflow="visible"/>
	</clipPath>
	<path clip-path="url(#SVGID_2_)" fill="#39B54A" d="M25.672,71.954c-1.951,1.952-1.951,5.118,0,7.071l8.84,8.838
		c1.951,1.952,5.117,1.952,7.07,0l70.489-70.489c1.951-1.953,1.951-5.119,0-7.071l-8.838-8.838c-1.953-1.953-5.119-1.953-7.072,0
		L25.672,71.954z"/>
	<path clip-path="url(#SVGID_2_)" fill="#39B54A" d="M50.67,71.954c1.953,1.952,1.953,5.119,0,7.071l-8.838,8.838
		c-1.953,1.952-5.119,1.952-7.07,0L1.463,54.565c-1.951-1.952-1.951-5.118,0-7.07l8.838-8.839c1.953-1.952,5.119-1.952,7.072,0
		L50.67,71.954z"/>
</g>
</svg>
